<?xml version="1.0" encoding="UTF-8"?>
<svg width="100pt" height="100pt" version="1.1" viewBox="0 0 100 100" xmlns="http://www.w3.org/2000/svg">
 <path d="m94.648 41.965l-10.59 5.0039-0.015625-0.015625s-9.4922 0.33203-17.379 3.6836c-2.3867 1.0156-4.6523 2.3164-6.6758 3.6484l-7.4453-22.688c-0.011719-0.03125-0.35156-0.86328-1.1641-1.0312l-16.715-2.4062 0.003907-11.184-0.023438-0.20312h-4.6953v10.488l-16.508-2.543c-0.91016 0-1.3242 1.0352-1.3438 1.082l-11.391 34.574c-0.050781 0.16016-0.066406 0.33984-0.019531 0.69141 0.027344 0.16797 0.089844 0.33594 0.24609 0.60547 0.09375 0.13281 0.21875 0.25 0.33203 0.33203 0.050781 0.058594 4.9961 5.6328 12.18 5.6328 7.3242 0 12.129-5.5781 12.145-5.6016 0.14453-0.10156 0.26562-0.22266 0.42969-0.46094 0.10156-0.1875 0.16406-0.35156 0.21875-0.65234 0.011719-0.21875-0.003906-0.39453-0.089843-0.64453l-10.449-32.156 14.25 2.0156v47.672l-9.2695-0.003906v4.6992h23.023v-4.6992h-9.0625l0.027344-46.773 14.516 2.2266-10.77 32.906c-0.050781 0.16016-0.066406 0.33984-0.019531 0.69141 0.027344 0.16797 0.089844 0.33984 0.24609 0.60547 0.09375 0.13281 0.21875 0.25391 0.33203 0.33594 0.050782 0.058594 4.9961 5.6328 12.184 5.6328 7.3242 0 12.129-5.5781 12.145-5.6055 0.14453-0.10156 0.26562-0.22266 0.42969-0.46094 0.10547-0.1875 0.16406-0.35156 0.21875-0.64844 0.011719-0.21875-0.003907-0.39453-0.089844-0.64453l-2.2578-6.8867c2.8984-1.2148 5.3086-1.7305 5.3086-1.7305s-2.875 5.0039-1.7773 8.5195c0.36328 1.1953 1.1406 1.8125 1.7734 2.125 0.29297-1.4141 0.89844-3.6484 2.0859-5.5625 1.3828-2.2344 2.5312-3.0859 2.582-3.1172 0.37891-0.26953 0.88672-0.15234 1.1289 0.28125 0.24609 0.4375 0.13672 1.0117-0.23828 1.2812-0.019532 0.023437-0.95703 0.74219-2.1328 2.6406-1.3438 2.1719-1.8516 4.9141-1.9844 5.8281 0.28125 0.55469 0.71484 1.2188 1.3242 1.6719 0.36719 0.27734 0.72656 0.35938 1.0469 0.35547 0.21094-1.2266 0.59766-2.7891 1.3008-4.1523 1.0117-1.9609 1.8945-2.6797 1.9922-2.7539 0.375-0.29297 0.88281-0.17969 1.1367 0.23828 0.25781 0.42578 0.16797 1-0.19531 1.2812-0.027344 0.027344-0.70703 0.61328-1.5195 2.1875-0.53125 1.0391-0.85938 2.2539-1.0508 3.2734 0.32031 0.53516 0.82813 1.2109 1.4102 1.3906 2.2578 0.69141 3.4688-1.6406 3.4688-1.6406l1.5195-2.9766s2.3047 0.26953 3.7891-0.47266c4.2305-1.8398 8.1133-8.4609 8.8398-9.7734l7.8594-3.7109zm-72.035 17.348h-18.332l9.1641-28.73zm19.375 5.7891l9.1641-28.73 6.2812 19.695c-3.4453 2.5508-5.6953 4.7773-5.6953 4.7773s-1.3242 1.5117-0.65234 2.4531c0.86719 1.2422 1.8438 0.41016 2.4766 0.082031 0.625-0.31641 2.2148-1.3984 5.2773-2.9141l1.4805 4.6328z"/>
</svg>
